# xmcd
#
# Track frame offsets: 
#        150
#        13806
#        28286
#        41592
#        60275
#        74188
#        87628
#        104525
#
# Disc length: 1707 seconds
#
# Revision: 1
# Processed by: cddbd v1.5.2PL0 Copyright (c) Steve Scherf et al.
# Submitted via: ExactAudioCopyFreeDBPlugin 1.0
#
DISCID=7306a908
DTITLE=Oscar Peterson - Standards
DYEAR=2010
DGENRE=Jazz
TTITLE0=Cheek to Cheek
TTITLE1=It Ain't Necessarily So
TTITLE2=Fascinating Rhythm
TTITLE3=I Only Have Eyes For You
TTITLE4=The Lady Is a Tramp
TTITLE5=Tha Old Black Magic
TTITLE6=Georgia On My Mind
TTITLE7=Mack The Knife
EXTD=YEAR: 2010
EXTT0=
EXTT1=
EXTT2=
EXTT3=
EXTT4=
EXTT5=
EXTT6=
EXTT7=
PLAYORDER=
